<?xml version="1.0" encoding="UTF-8"?>
<!DOCTYPE svg PUBLIC "-//W3C//DTD SVG 1.1//EN" "http://www.w3.org/Graphics/SVG/1.1/DTD/svg11.dtd">
<!-- Creator: CorelDRAW 2026 -->
<svg xmlns="http://www.w3.org/2000/svg" xml:space="preserve" width="150px" height="150px" version="1.1" shape-rendering="geometricPrecision" text-rendering="geometricPrecision" image-rendering="optimizeQuality" fill-rule="evenodd" clip-rule="evenodd"
viewBox="0 0 150 150"
 xmlns:xlink="http://www.w3.org/1999/xlink"
 xmlns:xodm="http://www.corel.com/coreldraw/odm/2003">
 <g id="Layer_x0020_15">
  <metadata id="CorelCorpID_0Corel-Layer"/>
  <ellipse fill="#D6E4F5" cx="73.93" cy="74.72" rx="71.93" ry="68.19"/>
  <g id="_2661068826992">
   <path fill="#083054" d="M144.83 71.66c2.1,34.58 -24.1,66.02 -60.77,71.25 0,-35.62 0,-35.62 0,-35.62 1.05,-8.38 9.43,-15.72 19.91,-15.72 11.52,-1.05 11.52,-1.05 11.52,-1.05 2.1,0 3.15,-2.09 4.19,-3.14 1.05,-1.05 -1.04,-3.14 -2.09,-4.19 4.19,-3.14 4.19,-3.14 4.19,-3.14 5.24,-5.24 8.38,-11.53 7.33,-18.87 0,-1.04 -1.04,-2.09 -2.09,-2.09 -4.19,0 -4.19,3.14 -5.24,8.38 -1.05,3.14 -3.14,5.24 -6.29,8.38 -7.33,7.34 -7.33,7.34 -7.33,7.34 -4.19,0 -4.19,0 -4.19,0 -7.34,1.05 -14.67,3.14 -19.91,9.43 0,-6.29 0,-6.29 0,-6.29 1.05,-4.19 4.19,-7.33 8.38,-10.48 7.33,-5.24 7.33,-12.57 9.43,-13.62 10.48,-9.43 10.48,-9.43 10.48,-9.43 2.09,-2.09 3.14,-5.24 3.14,-9.43 -1.05,-9.43 -1.05,-9.43 -1.05,-9.43 1.05,-1.05 -1.04,-2.1 -3.14,-2.1 -1.05,0 -3.14,1.05 -3.14,3.15 0,8.38 0,8.38 0,8.38 0,2.1 0,3.14 -2.1,4.19 -5.24,5.24 -5.24,5.24 -5.24,5.24 0,-33.53 0,-33.53 0,-33.53 0,-1.05 -2.09,-3.14 -3.14,-3.14 -1.05,0 -4.19,1.05 -4.19,3.14 0,27.24 0,27.24 0,27.24 -4.19,-3.14 -4.19,-3.14 -4.19,-3.14 -1.05,-2.09 -2.1,-3.14 -2.1,-5.24 -1.05,-3.14 -1.05,-3.14 -1.05,-3.14 0,-2.1 -1.04,-3.15 -2.09,-3.15 -2.1,0 -4.19,1.05 -4.19,3.15 0,4.19 0,4.19 0,4.19 0,3.14 2.09,5.24 4.19,7.33 7.33,7.34 7.33,7.34 7.33,7.34 1.05,1.05 2.1,2.1 2.1,3.14 0,3.15 -2.1,6.29 -4.19,8.39 -14.67,13.62 -14.67,13.62 -14.67,13.62 -4.19,3.14 -5.24,7.33 -5.24,12.57 -1.05,51.34 -1.05,51.34 -1.05,51.34 -17.81,-1.04 -35.63,-9.43 -47.15,-23.05 -1.05,-1.05 -1.05,-2.09 0,-3.14 1.05,-1.05 4.19,-2.1 5.24,-1.05 9.43,10.48 19.91,16.77 34.58,18.86 -1.05,-27.24 -1.05,-27.24 -1.05,-27.24 0,-9.43 -5.24,-15.72 -15.72,-15.72 -22,-1.05 -22,-1.05 -22,-1.05 -5.24,0 -10.48,-2.09 -10.48,-4.19 0,-2.09 3.14,-3.14 5.24,-3.14 4.19,0 4.19,0 7.33,0 1.05,1.05 3.14,0 6.29,1.05 -3.15,-3.15 -3.15,-3.15 -3.15,-3.15 -6.28,-5.24 -9.43,-11.52 -9.43,-18.86 0,-2.09 1.05,-3.14 3.15,-3.14 6.28,0 3.14,7.33 13.62,17.81 6.29,7.34 6.29,7.34 6.29,7.34 2.09,0 2.09,0 2.09,0 7.34,-1.05 13.62,1.04 18.86,6.28 0,-5.24 1.05,-9.43 5.24,-13.62 -12.57,-11.52 -12.57,-11.52 -12.57,-11.52 -2.1,-1.05 -3.14,-2.1 -6.29,-3.15 -3.14,-2.09 -5.24,-1.05 -8.38,-2.09 -4.19,0 -9.43,-6.29 -9.43,-10.48 0,-15.72 0,-15.72 0,-15.72 0,-1.05 3.14,-2.1 4.19,-2.1 1.05,0 4.19,1.05 4.19,3.15 -1.05,13.62 -1.05,13.62 -1.05,13.62 0,1.05 2.1,4.19 3.15,4.19 3.14,2.1 4.19,0 7.33,1.05 -1.05,-3.14 0,-5.24 -1.05,-9.43 0,-10.48 0,-10.48 0,-10.48 -10.47,-8.38 -10.47,-8.38 -10.47,-8.38 -1.05,-1.05 -1.05,-4.19 0,-4.19 1.04,-1.05 4.19,-2.1 5.23,-1.05 6.29,6.29 6.29,6.29 6.29,6.29 0,-13.62 0,-13.62 0,-13.62 0,-1.05 1.05,-2.1 3.15,-2.1 1.04,0 3.14,1.05 3.14,2.1 0,25.14 0,25.14 0,25.14 5.24,-5.24 5.24,-5.24 5.24,-5.24 1.05,-1.05 4.19,-2.09 5.24,0 1.04,1.05 1.04,3.15 0,4.19 -9.43,9.43 -9.43,9.43 -9.43,9.43 -1.05,1.05 -1.05,3.15 -1.05,4.2 1.05,4.19 3.14,6.28 6.29,10.47 2.09,2.1 4.19,4.2 6.28,6.29 5.24,4.19 5.24,4.19 5.24,4.19 6.29,-5.24 6.29,-5.24 6.29,-5.24 5.24,-5.24 4.19,-7.33 1.05,-14.67 -2.1,-5.24 -6.29,-7.33 -6.29,-14.67 0,-3.14 1.05,-5.24 2.1,-7.33 5.23,-6.29 5.23,-6.29 5.23,-6.29 2.1,-3.14 2.1,-7.33 2.1,-11.52 0,-1.05 1.05,-3.15 3.14,-3.15 5.24,1.05 11.53,2.1 16.77,4.2 24.1,10.47 40.86,33.52 41.91,57.62z"/>
   <line fill="#083054" x1="145.88" y1="72.71" x2="145.88" y2= "72.71" />
   <line fill="none" x1="145.88" y1="72.71" x2="145.88" y2= "72.71" />
  </g>
 </g>
</svg>
