<?xml version="1.0" encoding="UTF-8"?>
<!DOCTYPE svg PUBLIC "-//W3C//DTD SVG 1.1//EN" "http://www.w3.org/Graphics/SVG/1.1/DTD/svg11.dtd">
<!-- Creator: CorelDRAW -->
<svg xmlns="http://www.w3.org/2000/svg" xml:space="preserve" width="0.41in" height="0.224in" version="1.1" style="shape-rendering:geometricPrecision; text-rendering:geometricPrecision; image-rendering:optimizeQuality; fill-rule:evenodd; clip-rule:evenodd"
viewBox="0 0 410 224"
 xmlns:xlink="http://www.w3.org/1999/xlink"
 xmlns:xodm="http://www.corel.com/coreldraw/odm/2003">
 <defs>
  <style type="text/css">
   <![CDATA[
    .fil0 {fill:#48887B;fill-rule:nonzero}
   ]]>
  </style>
 </defs>
 <g id="Layer_x0020_1">
  <metadata id="CorelCorpID_0Corel-Layer"/>
  <path class="fil0" d="M184.63 -4.98l-17.43 10.07 -57.39 33.12 -5.78 3.33 -6.11 3.53 -3.12 1.8 37.31 64.68 1.16 -0.66 2.83 -1.64 5.24 -3.03 0 -0.02 31.87 -18.5 -4.92 111.78 -0.09 1.83 -0.64 13.71 126.71 0 -0.07 -1.53 -0.18 -4.19 -0.45 -9.83 -4.9 -111.54 31.5 18.29 -0.02 0.02 7.57 4.37 0.48 0.29 1.18 0.68 37.31 -64.69 -3.12 -1.8 -6.11 -3.53 -53.87 -31.09 -9.29 -5.37 -12.78 -7.38 -4.65 -2.67c-6.54,13.4 -24.85,23.15 -46.3,23.15 -21.43,0 -39.41,-9.76 -45.94,-23.16l-0.02 -0.02 0 0zm-9.87 18c21.86,20.2 51.97,26.52 78.17,19.72l-4.41 8.13 7.49 13.83 7.49 -13.83 -5.26 -9.72c10.82,-3.63 20.81,-9.59 29.02,-17.83l64.89 37.45 -26.65 46.21 -16.9 -9.82 6.93 -12.81 -7.49 -13.83 -7.48 13.83 6.43 11.89 -11.02 -6.4 -19.15 -11.34 0.28 4.85 -7.38 -13.64 -7.51 13.83 7.5 13.83 7.4 -13.68 0.83 14.05 0.02 0 1.25 28.18 -6.08 -11.21 -7.49 13.83 5.67 10.46 -34.35 0 5.13 -9.48 -7.49 -13.83 -7.49 13.83 5.13 9.48 -50.2 0 1.94 -44.07 -0.02 0 0.66 -16.47 -19.13 11.34 -29.52 17.15 -26.65 -46.19 65.39 -37.76 0 0zm2.6 9.57l-7.49 13.83 7.49 13.83 7.48 -13.83 -7.48 -13.83zm154.07 22.6l-7.49 13.83 7.49 13.83 7.49 -13.83 -7.49 -13.83 0 0zm-173.04 10.07l-7.48 13.83 7.48 13.83 7.49 -13.83 -7.49 -13.83 0 0zm64.94 21.78l-7.49 13.83 7.49 13.83 7.49 -13.83 -7.49 -13.83 0 0zm31.87 11.3l-7.49 13.83 7.49 13.83 7.49 -13.83 -7.49 -13.83 0 0zm-56.89 5.24l-7.49 13.83 7.49 13.83 7.5 -13.83 -7.5 -13.83 0 0zm81.13 27.17l0.35 8.26 -4.83 0 4.48 -8.26 0 0zm-97.8 17.94l98.58 0 0.5 11.39 -99.58 0 0.5 -11.39 0 0zm-0.93 21.07l22.34 0 -6.19 11.39 7.5 13.83 7.49 -13.83 -6.17 -11.39 68.78 0 -6.59 12.19 7.48 13.83 6.42 -11.85 1.12 25.53 -30.48 0 4.62 -8.54 -7.49 -13.83 -7.49 13.83 4.62 8.54 -67.7 0 1.74 -39.7zm95.54 0l4.9 0 0.43 9.86 -5.33 -9.86 0 0z"/>
 </g>
</svg>
